{
  "accessors": [
    {
      "bufferView": 2,
      "componentType": 5126,
      "count": 62,
      "max": [
        3.435866117477417,
        5.310408115386963,
        0.4943850040435791
      ],
      "min": [
        -3.435866117477417,
        -5.310408115386963,
        -0.4943859875202179
      ],
      "type": "VEC3"
    },
    {
      "bufferView": 2,
      "byteOffset": 744,
      "componentType": 5126,
      "count": 62,
      "max": [
        0.975292980670929,
        0.7873931527137756,
        0.9997985363006592
      ],
      "min": [
        -0.975292980670929,
        -0.04826998710632324,
        -0.9997280240058899
      ],
      "type": "VEC3"
    },
    {
      "bufferView": 1,
      "componentType": 5126,
      "count": 62,
      "max": [
        0.9540169835090637,
        0.9698140025138855
      ],
      "min": [
        0.04689300060272217,
        0.027984000742435455
      ],
      "type": "VEC2"
    },
    {
      "bufferView": 0,
      "componentType": 5125,
      "count": 138,
      "type": "SCALAR"
    }
  ],
  "asset": {
    "extras": {
      "author": "neutralize (https://sketchfab.com/neutralize)",
      "license": "CC-BY-4.0 (http://creativecommons.org/licenses/by/4.0/)",
      "source": "https://sketchfab.com/3d-models/paper-plane-2e330a7c89d5428e88386b348e622bbc",
      "title": "Paper Plane"
    },
    "generator": "Sketchfab-12.66.0",
    "version": "2.0"
  },
  "bufferViews": [
    {
      "buffer": 0,
      "byteLength": 552,
      "name": "floatBufferViews",
      "target": 34963
    },
    {
      "buffer": 0,
      "byteLength": 496,
      "byteOffset": 552,
      "byteStride": 8,
      "name": "floatBufferViews",
      "target": 34962
    },
    {
      "buffer": 0,
      "byteLength": 1488,
      "byteOffset": 1048,
      "byteStride": 12,
      "name": "floatBufferViews",
      "target": 34962
    }
  ],
  "buffers": [
    {
      "byteLength": 2536,
      "uri": "scene.bin"
    }
  ],
  "materials": [
    {
      "doubleSided": true,
      "name": "initialShadingGroup",
      "pbrMetallicRoughness": {
        "metallicFactor": 0.0
      }
    }
  ],
  "meshes": [
    {
      "name": "Object_0",
      "primitives": [
        {
          "attributes": {
            "NORMAL": 1,
            "POSITION": 0,
            "TEXCOORD_0": 2
          },
          "indices": 3,
          "material": 0,
          "mode": 4
        }
      ]
    }
  ],
  "nodes": [
    {
      "children": [
        1
      ],
      "matrix": [
        1.0,
        0.0,
        0.0,
        0.0,
        0.0,
        2.220446049250313e-16,
        -1.0,
        0.0,
        0.0,
        1.0,
        2.220446049250313e-16,
        0.0,
        0.0,
        0.0,
        0.0,
        1.0
      ],
      "name": "Sketchfab_model"
    },
    {
      "children": [
        2
      ],
      "name": "PaperPlane.obj.cleaner.materialmerger.gles"
    },
    {
      "mesh": 0,
      "name": "Object_2"
    }
  ],
  "scene": 0,
  "scenes": [
    {
      "name": "Sketchfab_Scene",
      "nodes": [
        0
      ]
    }
  ]
}
